# xmcd
#
# Track frame offsets: 
#        150
#        11417
#        39091
#        49213
#        73002
#        89937
#        107509
#        125504
#        152766
#        163791
#
# Disc length: 2464 seconds
#
# Revision: 1
# Processed by: cddbd v1.5.2PL0 Copyright (c) Steve Scherf et al.
# Submitted via: ExactAudioCopy v0.95b2
#
DISCID=7f099e0a
DTITLE=Kitt Lough - orange colored view
DYEAR=2004
DGENRE=Jazz
TTITLE0=Honeysuckle Rose
TTITLE1=Lover Man
TTITLE2=I've Got My Love To Keep Me Warm
TTITLE3=Love Me Or Leave Me
TTITLE4=Sentimental Journey
TTITLE5=Boulevard Of Broken Dreams
TTITLE6=No Moon At All
TTITLE7=Cry Me A River
TTITLE8=Orange Colored Sky
TTITLE9=The Very Thought Of You
EXTD=YEAR: 2004
EXTT0=
EXTT1=
EXTT2=
EXTT3=
EXTT4=
EXTT5=
EXTT6=
EXTT7=
EXTT8=
EXTT9=
PLAYORDER=
